<svg width="126" height="35" viewBox="0 0 126 35" fill="none" xmlns="http://www.w3.org/2000/svg">
<path d="M46.2143 24.2686C47.3781 24.2686 48.3913 24.0529 49.2539 23.6216C50.1165 23.1821 50.796 22.5881 51.2925 21.8394C51.7889 21.0825 52.0696 20.228 52.1348 19.2759L52.147 19.2026H48.8266L48.8144 19.3003C48.6842 19.9676 48.3994 20.4966 47.9599 20.8872C47.5286 21.2778 46.9549 21.4731 46.2388 21.4731C45.6447 21.4731 45.132 21.3185 44.7007 21.0093C44.2694 20.6919 43.9357 20.2321 43.6997 19.6299C43.4718 19.0277 43.3579 18.2952 43.3579 17.4326V17.4204C43.3579 16.5822 43.4718 15.862 43.6997 15.2598C43.9357 14.6576 44.2694 14.1978 44.7007 13.8804C45.132 13.5549 45.6406 13.3921 46.2265 13.3921C46.9671 13.3921 47.553 13.5996 47.9844 14.0146C48.4238 14.4297 48.6964 14.9505 48.8022 15.5771L48.8266 15.6748H52.1348V15.6016C52.0778 14.6494 51.8011 13.799 51.3047 13.0503C50.8164 12.2935 50.1369 11.6953 49.2661 11.2559C48.3953 10.8164 47.3699 10.5967 46.1899 10.5967C44.8716 10.5967 43.7282 10.8734 42.7598 11.4268C41.7913 11.972 41.0426 12.7533 40.5137 13.7705C39.9928 14.7878 39.7324 16.0003 39.7324 17.4082V17.4204C39.7324 18.8364 39.9928 20.0571 40.5137 21.0825C41.0426 22.1079 41.7913 22.8973 42.7598 23.4507C43.7282 23.9959 44.8797 24.2686 46.2143 24.2686ZM59.0083 24.2686C60.3429 24.2686 61.4945 24 62.4629 23.4629C63.4313 22.9176 64.18 22.1364 64.709 21.1191C65.2461 20.0938 65.5146 18.869 65.5146 17.4448V17.4204C65.5146 15.9963 65.2461 14.7756 64.709 13.7583C64.1719 12.741 63.415 11.9598 62.4385 11.4146C61.47 10.8693 60.3266 10.5967 59.0083 10.5967C57.6981 10.5967 56.5547 10.8693 55.5781 11.4146C54.6015 11.9598 53.8447 12.7451 53.3076 13.7705C52.7705 14.7878 52.5019 16.0044 52.5019 17.4204V17.4448C52.5019 18.8608 52.7664 20.0815 53.2954 21.1069C53.8244 22.1242 54.5771 22.9054 55.5537 23.4507C56.5303 23.9959 57.6818 24.2686 59.0083 24.2686ZM59.0205 21.4731C58.4264 21.4731 57.9137 21.3185 57.4824 21.0093C57.0511 20.6919 56.7174 20.2321 56.4814 19.6299C56.2536 19.0277 56.1396 18.2993 56.1396 17.4448V17.4204C56.1396 16.5659 56.2576 15.8416 56.4936 15.2476C56.7296 14.6453 57.0633 14.1855 57.4946 13.8682C57.9259 13.5508 58.4305 13.3921 59.0083 13.3921C59.5861 13.3921 60.0906 13.5508 60.522 13.8682C60.9533 14.1855 61.2869 14.6453 61.5229 15.2476C61.7589 15.8416 61.8769 16.5659 61.8769 17.4204V17.4448C61.8769 18.2993 61.7589 19.0277 61.5229 19.6299C61.2951 20.2321 60.9655 20.6919 60.5342 21.0093C60.111 21.3185 59.6064 21.4731 59.0205 21.4731ZM71.7412 24.2441C72.1074 24.2441 72.437 24.2279 72.73 24.1953C73.0229 24.1628 73.2711 24.1302 73.4746 24.0977V21.4854C73.3525 21.5016 73.2264 21.5179 73.0962 21.5342C72.9741 21.5423 72.8317 21.5464 72.6689 21.5464C72.1155 21.5464 71.7046 21.4243 71.436 21.1802C71.1675 20.936 71.0332 20.5088 71.0332 19.8984V13.5508H73.4746V10.8652H71.0332V7.66699H67.4321V10.8652H65.5766V13.5508H67.4321V20.3501C67.4321 21.7336 67.782 22.7305 68.4819 23.3408C69.1818 23.943 70.2682 24.2441 71.7412 24.2441ZM74.5742 24H78.1387V16.6514C78.1387 16.0166 78.2485 15.4795 78.4682 15.04C78.6961 14.5924 79.0216 14.2547 79.4448 14.0269C79.8761 13.799 80.3929 13.6851 80.9951 13.6851C81.2555 13.6851 81.5037 13.7054 81.7397 13.7461C81.9757 13.7786 82.1751 13.8234 82.3379 13.8804V10.7554C82.1914 10.7065 82.0246 10.6699 81.8374 10.6455C81.6584 10.6211 81.4671 10.6089 81.2637 10.6089C80.4824 10.6089 79.8273 10.8286 79.2983 11.2681C78.7775 11.7075 78.4235 12.326 78.2363 13.1235H78.1387V10.8652H74.5742V24ZM86.4892 24.2075C87.067 24.2075 87.6001 24.1221 88.0884 23.9512C88.5848 23.7803 89.0242 23.5361 89.4067 23.2188C89.7892 22.8932 90.1025 22.5107 90.3467 22.0713H90.4443V24H93.9966V15.0034C93.9966 14.1082 93.7687 13.3311 93.313 12.6719C92.8572 12.0127 92.2143 11.5041 91.3843 11.146C90.5542 10.7798 89.5695 10.5967 88.4302 10.5967C87.2827 10.5967 86.2899 10.7716 85.4516 11.1216C84.6216 11.4715 83.9705 11.9557 83.4985 12.5742C83.0265 13.1927 82.7539 13.9089 82.6806 14.7227L82.6684 14.8569H85.9399L85.9521 14.7593C86.0498 14.3361 86.2939 13.9902 86.6846 13.7217C87.0833 13.4531 87.6123 13.3188 88.2715 13.3188C88.9795 13.3188 89.5166 13.4857 89.8828 13.8193C90.2571 14.153 90.4443 14.6128 90.4443 15.1987V19.2026C90.4443 19.6584 90.3223 20.0693 90.0781 20.4355C89.834 20.8018 89.5003 21.0907 89.0771 21.3022C88.6621 21.5057 88.186 21.6074 87.6489 21.6074C87.0386 21.6074 86.5462 21.4691 86.1719 21.1924C85.7975 20.9157 85.6103 20.5373 85.6103 20.0571V20.0327C85.6103 19.5688 85.7894 19.1986 86.1474 18.9219C86.5137 18.637 87.0467 18.4743 87.7466 18.4336L92.2998 18.1284V15.9189L87.2095 16.2363C86.119 16.3096 85.1912 16.509 84.4263 16.8345C83.6694 17.16 83.0916 17.6076 82.6929 18.1772C82.2941 18.7388 82.0947 19.4224 82.0947 20.228V20.2402C82.0947 21.0133 82.2778 21.701 82.644 22.3032C83.0184 22.8973 83.5351 23.3652 84.1943 23.707C84.8616 24.0407 85.6266 24.2075 86.4892 24.2075ZM98.8071 24H102.823L107.34 10.8652H103.617L100.907 20.8262H100.809L98.0747 10.8652H94.2661L98.8071 24ZM113.237 24.2686C114.181 24.2686 115.003 24.1465 115.703 23.9023C116.402 23.6582 116.992 23.3327 117.473 22.9258C117.961 22.5189 118.343 22.0754 118.62 21.5952C118.905 21.1151 119.1 20.639 119.206 20.167L119.23 20.0205H115.959L115.935 20.0938C115.853 20.3379 115.699 20.578 115.471 20.814C115.243 21.0418 114.95 21.2331 114.592 21.3877C114.234 21.5342 113.806 21.6074 113.31 21.6074C112.692 21.6074 112.154 21.4731 111.699 21.2046C111.251 20.9279 110.905 20.5332 110.661 20.0205C110.425 19.4997 110.307 18.8771 110.307 18.1528V16.7612C110.307 16.0125 110.429 15.3778 110.673 14.8569C110.917 14.328 111.251 13.9292 111.674 13.6606C112.106 13.3921 112.598 13.2578 113.151 13.2578C113.713 13.2578 114.201 13.388 114.616 13.6484C115.039 13.9089 115.369 14.2995 115.605 14.8203C115.849 15.3411 115.971 15.9881 115.971 16.7612V18.1406L117.656 16.041H108.537V18.2871H119.34V17.1763C119.34 15.8579 119.088 14.7064 118.583 13.7217C118.079 12.7288 117.359 11.9598 116.423 11.4146C115.487 10.8693 114.376 10.5967 113.09 10.5967C111.813 10.5967 110.702 10.8774 109.758 11.439C108.814 12.0005 108.081 12.7939 107.561 13.8193C107.04 14.8447 106.779 16.0532 106.779 17.4448V17.457C106.779 18.8568 107.04 20.0693 107.561 21.0947C108.081 22.112 108.822 22.8973 109.782 23.4507C110.751 23.9959 111.902 24.2686 113.237 24.2686ZM120.416 24H123.98V6.25098H120.416V24Z" fill="white"/>
<path d="M16.4975 13.7882C14.4571 17.3224 9.93798 18.5333 6.40383 16.4928C2.86969 14.4524 1.6588 9.93328 3.69924 6.39914C5.73968 2.86499 10.2588 1.6541 13.7929 3.69454C17.3271 5.73498 18.538 10.2541 16.4975 13.7882Z" fill="#DDDC86"/>
<path d="M29.2958 21.1774C27.2554 24.7115 22.7363 25.9224 19.2021 23.882C15.668 21.8415 14.4571 17.3224 16.4975 13.7883C18.538 10.2542 23.0571 9.04326 26.5912 11.0837C30.1253 13.1241 31.3362 17.6432 29.2958 21.1774Z" fill="#DDDC86"/>
<path d="M16.4928 28.5746C14.4524 32.1087 9.93328 33.3196 6.39913 31.2792C2.86499 29.2388 1.6541 24.7197 3.69454 21.1855C5.73498 17.6514 10.2541 16.4405 13.7882 18.4809C17.3224 20.5214 18.5333 25.0405 16.4928 28.5746Z" fill="#DDDC86"/>
</svg>
