<svg width="200" height="108" viewBox="0 0 200 108" fill="none" xmlns="http://www.w3.org/2000/svg">
<g clip-path="url(#clip0_302_160)">
<path d="M10.9951 107.081H9.74017V99.8505H1.25489V107.081H0V92.0222H1.25489V98.7746H9.74017V92.0222H10.9951V107.081Z" fill="white"/>
<path d="M25.8748 100.209L30.4164 92.0222H31.8503L26.4727 101.404V107.081H25.21V101.404L19.8993 92.0222H21.3922L25.8748 100.209Z" fill="white"/>
<path d="M41.3505 107.081V92.0221H45.7131C46.9904 91.9295 48.2595 92.2887 49.2988 93.0371C49.7223 93.3932 50.0564 93.8437 50.2743 94.3523C50.4922 94.8609 50.5879 95.4135 50.5537 95.9658C50.5843 96.6998 50.3513 97.4205 49.8967 97.9976C49.4711 98.5934 48.8627 99.034 48.1639 99.2525C48.9999 99.4154 49.7453 99.8838 50.2547 100.566C50.7836 101.226 51.0592 102.052 51.0316 102.897C51.0651 103.476 50.9698 104.055 50.7529 104.592C50.5359 105.129 50.2025 105.612 49.7767 106.005C48.776 106.794 47.525 107.197 46.252 107.14H41.3505V107.081ZM42.6054 98.7745H46.0121C46.8936 98.8022 47.7582 98.5281 48.4628 97.9976C48.7555 97.7384 48.9835 97.4143 49.1287 97.0513C49.2738 96.6883 49.3321 96.2963 49.2988 95.9068C49.328 95.503 49.2621 95.0979 49.1063 94.7242C48.9505 94.3505 48.7092 94.0185 48.4019 93.755C47.6116 93.2206 46.6645 92.9677 45.7131 93.0371H42.6054V98.7745ZM42.6054 99.8504V106.005H46.37C47.2985 106.041 48.2093 105.744 48.9388 105.169C49.5404 104.57 49.8834 103.759 49.8944 102.91C49.9055 102.061 49.5836 101.242 48.9978 100.627C48.2961 100.043 47.4 99.7446 46.488 99.7914H42.6054V99.8504Z" fill="white"/>
<path d="M66.9243 100.806H62.6227V107.081H61.3678V92.0222H66.2084C67.5516 91.9284 68.8791 92.3568 69.9141 93.2181C70.3664 93.6317 70.7196 94.142 70.9471 94.7111C71.1746 95.2802 71.2706 95.8934 71.228 96.5048C71.2256 97.4276 70.9331 98.3262 70.392 99.0736C69.8298 99.8039 69.0587 100.346 68.1812 100.627L71.8869 107.022V107.142H70.51L66.9243 100.806ZM62.6227 99.7306H66.4464C66.9036 99.7582 67.3617 99.693 67.793 99.5389C68.2244 99.3847 68.62 99.1448 68.9562 98.8337C69.276 98.5385 69.5274 98.1769 69.6925 97.7742C69.8577 97.3716 69.9326 96.9376 69.9121 96.5029C69.9404 96.0441 69.8636 95.5849 69.6878 95.1602C69.5119 94.7355 69.2415 94.3565 68.8972 94.0521C68.1061 93.4122 67.1039 93.0922 66.0884 93.1552H62.5637V99.7286L62.6227 99.7306Z" fill="white"/>
<path d="M87.6006 92.0222H86.3457V107.081H87.6006V92.0222Z" fill="white"/>
<path d="M102.12 107.081V92.0221H106.251C107.4 92.015 108.532 92.3028 109.538 92.858C110.508 93.4204 111.296 94.25 111.807 95.2478C112.377 96.356 112.664 97.5877 112.643 98.8335V100.21C112.641 101.447 112.376 102.669 111.866 103.796C111.354 104.793 110.565 105.622 109.595 106.184C108.571 106.746 107.419 107.034 106.251 107.02H102.12V107.081ZM103.316 93.098V106.005H106.125C106.827 106.028 107.525 105.901 108.174 105.633C108.824 105.365 109.408 104.962 109.89 104.451C110.89 103.271 111.403 101.754 111.324 100.208V98.8945C111.383 97.3797 110.895 95.8941 109.947 94.7109C109.477 94.2006 108.903 93.7976 108.264 93.5295C107.624 93.2613 106.934 93.1342 106.241 93.157H103.312L103.316 93.098Z" fill="white"/>
<path d="M147.356 99.8505H140.424V106.005H148.431V107.081H139.169V92.0222H148.372V93.0981H140.424V98.7746H147.356V99.8505Z" fill="white"/>
<path d="M169.584 100.209L174.125 92.0222H175.559L170.248 101.404V107.081H168.993V101.404L163.608 92.0222H165.101L169.584 100.209Z" fill="white"/>
<path d="M198.983 99.8505H192.052V106.005H200V107.081H190.797V92.0222H199.939V93.0981H192.052V98.7746H198.983V99.8505Z" fill="white"/>
<path d="M92.4411 0H78.5783V32.5072H42.7254V43.5023H28.7426V78.1594H42.7254V43.5003H78.5783V78.1574H92.4411V0Z" fill="white"/>
<path d="M171.139 64.1155H107.62V78.1573H171.139V64.1155Z" fill="white"/>
<path d="M171.139 0H107.62V14.0418H171.139V0Z" fill="white"/>
<path d="M158.711 32.0884H107.62V46.1302H158.711V32.0884Z" fill="white"/>
</g>
<defs>
<clipPath id="clip0_302_160">
<rect width="200" height="107.14" fill="white"/>
</clipPath>
</defs>
</svg>
