<svg width="176" height="207" viewBox="0 0 176 207" fill="none" xmlns="http://www.w3.org/2000/svg">
<mask id="mask0_309_27" style="mask-type:luminance" maskUnits="userSpaceOnUse" x="93" y="0" width="83" height="97">
<path d="M104.95 38.0517V16.6023C125.83 16.6023 144.05 30.2519 153.48 50.3505C157.979 59.9331 160.332 70.7006 160.32 81.6436H142.06C142.06 57.5982 125.41 38.0517 104.95 38.0517M93.01 96.6441H175.24V0.0512695H93.01V96.6441Z" fill="white"/>
</mask>
<g mask="url(#mask0_309_27)">
<path d="M216.18 43.8664L137.94 144.735L52.08 52.8291L130.32 -48.0396L216.18 43.8664Z" fill="url(#paint0_linear_309_27)"/>
</g>
<mask id="mask1_309_27" style="mask-type:luminance" maskUnits="userSpaceOnUse" x="0" y="0" width="83" height="97">
<path d="M13.62 16.556L69.04 16.603V38.0524H31.88V81.5973H13.62V16.556ZM0 96.7505H82.23V0.169434H0V96.7505Z" fill="white"/>
</mask>
<g mask="url(#mask1_309_27)">
<path d="M123.24 45.1115L43.97 144.935L-41.02 51.8071L38.26 -48.0161L123.24 45.1115Z" fill="url(#paint1_linear_309_27)"/>
</g>
<mask id="mask2_309_27" style="mask-type:luminance" maskUnits="userSpaceOnUse" x="0" y="109" width="83" height="98">
<path d="M13.62 125.658H31.88V190.7H13.62V125.658ZM0 206.135H82.23V109.554H0V206.135Z" fill="white"/>
</mask>
<g mask="url(#mask2_309_27)">
<path d="M123.24 154.496L43.97 254.319L-41.02 161.192L38.26 61.3687L123.24 154.496Z" fill="url(#paint2_linear_309_27)"/>
</g>
<mask id="mask3_309_27" style="mask-type:luminance" maskUnits="userSpaceOnUse" x="93" y="109" width="83" height="98">
<path d="M104.95 125.658H123.23C123.23 149.68 139.87 169.227 160.32 169.227V190.7C129.79 190.688 104.95 161.509 104.95 125.658M93.01 206.135H175.24V109.554H93.01V206.135V206.135Z" fill="white"/>
</mask>
<g mask="url(#mask3_309_27)">
<path d="M216.26 154.496L136.98 254.319L52 161.192L131.27 61.3687L216.26 154.496Z" fill="url(#paint3_linear_309_27)"/>
</g>
<defs>
<linearGradient id="paint0_linear_309_27" x1="-8230.58" y1="-8996.04" x2="-8410.85" y2="-8827.62" gradientUnits="userSpaceOnUse">
<stop stop-color="#08BFF7"/>
<stop offset="0.054" stop-color="#08BFF7"/>
<stop offset="0.352" stop-color="#357DF7"/>
<stop offset="0.776" stop-color="#7123F7"/>
<stop offset="0.969" stop-color="#8900F7"/>
<stop offset="1" stop-color="#8900F7"/>
</linearGradient>
<linearGradient id="paint1_linear_309_27" x1="-8193.21" y1="-9168.78" x2="-8375.18" y2="-9002.72" gradientUnits="userSpaceOnUse">
<stop stop-color="#00D8FF"/>
<stop offset="0.028" stop-color="#00D8FF"/>
<stop offset="0.925" stop-color="#8900F7"/>
<stop offset="1" stop-color="#8900F7"/>
</linearGradient>
<linearGradient id="paint2_linear_309_27" x1="-8146.7" y1="-9117.94" x2="-8328.68" y2="-8951.88" gradientUnits="userSpaceOnUse">
<stop stop-color="#00D8FF"/>
<stop offset="0.932" stop-color="#8900F7"/>
<stop offset="1" stop-color="#8900F7"/>
</linearGradient>
<linearGradient id="paint3_linear_309_27" x1="-8096.87" y1="-9063.47" x2="-8278.85" y2="-8897.4" gradientUnits="userSpaceOnUse">
<stop stop-color="#00D8FF"/>
<stop offset="0.653" stop-color="#6040F9"/>
<stop offset="0.951" stop-color="#8900F7"/>
<stop offset="1" stop-color="#8900F7"/>
</linearGradient>
</defs>
</svg>
