<svg width="24" height="24" viewBox="0 0 24 24" fill="none" xmlns="http://www.w3.org/2000/svg">
<path d="M12 3C11.8678 3.00002 11.7368 3.02626 11.6148 3.07722C11.4928 3.12818 11.382 3.20284 11.2891 3.29688L1.20312 12.0977C1.14013 12.1441 1.08894 12.2048 1.05366 12.2746C1.01838 12.3445 0.999997 12.4217 1 12.5C1 12.6326 1.05268 12.7598 1.14645 12.8536C1.24021 12.9473 1.36739 13 1.5 13H4V21C4 21.552 4.448 22 5 22H9C9.552 22 10 21.552 10 21V15H14V21C14 21.552 14.448 22 15 22H19C19.552 22 20 21.552 20 21V13H22.5C22.6326 13 22.7598 12.9473 22.8536 12.8536C22.9473 12.7598 23 12.6326 23 12.5C23 12.4217 22.9816 12.3445 22.9463 12.2746C22.9111 12.2048 22.8599 12.1441 22.7969 12.0977L12.7168 3.30273C12.7149 3.30077 12.7129 3.29882 12.7109 3.29688C12.618 3.20284 12.5072 3.12818 12.3852 3.07722C12.2632 3.02626 12.1322 3.00002 12 3Z" fill="white"/>
</svg>
