<svg width="21" height="22" viewBox="0 0 21 22" fill="none" xmlns="http://www.w3.org/2000/svg">
<path fill-rule="evenodd" clip-rule="evenodd" d="M13.6432 20.03C13.5432 20.71 12.9232 21.25 12.1832 21.25H8.48324C7.74324 21.25 7.12324 20.71 7.03324 19.98L6.76324 18.09C6.49324 17.95 6.23324 17.8 5.97324 17.63L4.17324 18.35C3.47324 18.61 2.70324 18.32 2.36324 17.7L0.533242 14.53C0.183242 13.87 0.333242 13.09 0.893242 12.65L2.42324 11.46C2.41324 11.31 2.40324 11.16 2.40324 11C2.40324 10.85 2.41324 10.69 2.42324 10.54L0.903242 9.35001C0.313242 8.90001 0.163242 8.09001 0.533242 7.47001L2.38324 4.28001C2.72324 3.66001 3.49324 3.38001 4.17324 3.65001L5.98324 4.38001C6.24324 4.21001 6.50324 4.06001 6.76324 3.92001L7.03324 2.01001C7.12324 1.31001 7.74324 0.76001 8.47324 0.76001H12.1732C12.9132 0.76001 13.5332 1.30001 13.6232 2.03001L13.8932 3.92001C14.1632 4.06001 14.4232 4.21001 14.6832 4.38001L16.4832 3.66001C17.1932 3.40001 17.9632 3.69001 18.3032 4.31001L20.1432 7.49001C20.5032 8.15001 20.3432 8.93001 19.7832 9.37001L18.2632 10.56C18.2732 10.71 18.2832 10.86 18.2832 11.02C18.2832 11.18 18.2732 11.33 18.2632 11.48L19.7832 12.67C20.3432 13.12 20.5032 13.9 20.1532 14.53L18.2932 17.75C17.9532 18.37 17.1832 18.65 16.4932 18.38L14.6932 17.66C14.4332 17.83 14.1732 17.98 13.9132 18.12L13.6432 20.03ZM8.95324 19.25H11.7132L12.0832 16.7L12.6132 16.48C13.0532 16.3 13.4932 16.04 13.9532 15.7L14.4032 15.36L16.7832 16.32L18.1632 13.92L16.1332 12.34L16.2032 11.78L16.2064 11.7531C16.2353 11.5027 16.2632 11.2607 16.2632 11C16.2632 10.73 16.2332 10.47 16.2032 10.22L16.1332 9.66001L18.1632 8.08001L16.7732 5.68001L14.3832 6.64001L13.9332 6.29001C13.5132 5.97001 13.0632 5.71001 12.6032 5.52001L12.0832 5.30001L11.7132 2.75001H8.95324L8.58324 5.30001L8.05324 5.51001C7.61324 5.70001 7.17324 5.95001 6.71324 6.30001L6.26324 6.63001L3.88324 5.68001L2.49324 8.07001L4.52324 9.65001L4.45324 10.21C4.42324 10.47 4.39324 10.74 4.39324 11C4.39324 11.26 4.41324 11.53 4.45324 11.78L4.52324 12.34L2.49324 13.92L3.87324 16.32L6.26324 15.36L6.71324 15.71C7.14324 16.04 7.57324 16.29 8.04324 16.48L8.57324 16.7L8.95324 19.25ZM13.8332 11C13.8332 12.933 12.2662 14.5 10.3332 14.5C8.40025 14.5 6.83324 12.933 6.83324 11C6.83324 9.06701 8.40025 7.50001 10.3332 7.50001C12.2662 7.50001 13.8332 9.06701 13.8332 11Z" fill="#CAC4D0"/>
</svg>
