<svg width="72" height="69" viewBox="0 0 72 69" fill="none" xmlns="http://www.w3.org/2000/svg">
<path fill-rule="evenodd" clip-rule="evenodd" d="M31.1117 51.4492C30.9411 50.923 30.486 50.5362 29.9371 50.4594L26.8486 50.0101L25.4692 47.2116C25.2247 46.7139 24.7185 46.401 24.1638 46.401C23.6092 46.401 23.103 46.7167 22.8584 47.2116L21.4763 50.0101L18.3877 50.4594C17.8388 50.5391 17.3838 50.923 17.2131 51.4492C17.0425 51.9781 17.1847 52.5554 17.5828 52.9423L19.8182 55.1208L19.2892 58.1952C19.1953 58.7412 19.42 59.2929 19.8694 59.62C20.1225 59.8048 20.424 59.8987 20.7254 59.8987C20.9558 59.8987 21.189 59.8447 21.4023 59.7309L24.1667 58.2804L26.9282 59.7309C27.4174 59.9868 28.0118 59.9442 28.4612 59.62C28.9105 59.2929 29.1352 58.7412 29.0413 58.1952L28.5124 55.1208L30.7477 52.9423C31.1402 52.5555 31.2824 51.9782 31.1118 51.4492H31.1117ZM25.9271 53.568C25.583 53.9036 25.4266 54.3842 25.5091 54.8563L25.6683 55.7777L24.8407 55.3426C24.417 55.1179 23.9108 55.1179 23.487 55.3426L22.6565 55.7777L22.8158 54.8563C22.8954 54.3842 22.739 53.9007 22.3977 53.568L21.7266 52.9167L22.6537 52.783C23.1286 52.7148 23.5381 52.4161 23.7514 51.9867L24.1667 51.1477L24.5819 51.9867C24.7923 52.4161 25.2047 52.7147 25.6797 52.783L26.6068 52.9167L25.9271 53.568Z" fill="white"/>
<path fill-rule="evenodd" clip-rule="evenodd" d="M71.6393 22.2357C71.6593 21.8489 71.5256 21.4707 71.2668 21.1863L66.7619 16.178C66.2244 15.5808 65.3029 15.5296 64.7057 16.0699C63.6108 17.0568 62.1973 17.5545 60.7241 17.4777C59.2538 17.4009 57.9 16.7553 56.9159 15.6576C54.8796 13.3966 55.0673 9.90136 57.3283 7.86511C57.9256 7.3276 57.9739 6.40615 57.4364 5.80892L52.9315 0.800655C52.6727 0.513413 52.3115 0.33993 51.9248 0.320018C51.538 0.294419 51.1597 0.433777 50.8753 0.692581L35.677 14.3634L35.6742 14.3662L35.6713 14.3691L9.41816 37.983H1.46919C0.664313 37.983 0.0130615 38.6343 0.0130615 39.4392V46.1766C0.0130615 46.9815 0.664335 47.6327 1.46919 47.6327C4.51227 47.6327 6.98367 50.107 6.98367 53.15C6.98367 56.1931 4.50943 58.6674 1.46919 58.6674C0.664313 58.6674 0.0130615 59.3186 0.0130615 60.1235V66.8609C0.0130615 67.6658 0.664335 68.317 1.46919 68.317H63.3974C64.2023 68.317 64.8535 67.6657 64.8535 66.8609V60.1235C64.8535 59.3186 64.2023 58.6674 63.3974 58.6674C60.3543 58.6674 57.8801 56.1931 57.8801 53.15C57.8801 50.107 60.3543 47.6327 63.3974 47.6327C64.2023 47.6327 64.8535 46.9814 64.8535 46.1766V39.4392C64.8535 38.6343 64.2023 37.983 63.3974 37.983H54.7742L71.1615 23.2427C71.4487 22.9839 71.6193 22.6227 71.6392 22.2359L71.6393 22.2357ZM2.92559 61.4513C6.88159 60.7602 9.8962 57.2991 9.8962 53.1499C9.8962 48.9977 6.87875 45.5395 2.92559 44.8486V40.8983H41.4961V65.4048L2.92559 65.402V61.4513ZM30.7594 37.6189L30.5063 36.7202L31.3737 37.0672C31.8202 37.2463 32.3236 37.1923 32.7218 36.9278L33.501 36.4074L33.4384 37.3402C33.4242 37.5648 33.464 37.781 33.5465 37.9829H30.8078C30.8078 37.8606 30.7936 37.7383 30.7594 37.6189L30.7594 37.6189ZM61.9408 44.8455C57.9848 45.5366 54.9674 48.9977 54.9674 53.1469C54.9674 57.2991 57.9848 60.7573 61.9408 61.4482V65.3986L44.4076 65.4014V40.8948H61.9408V44.8455ZM37.9374 37.983L36.3959 36.7657L36.6007 33.6516C36.6376 33.097 36.3561 32.5737 35.8755 32.295C35.3948 32.0163 34.8004 32.0362 34.3397 32.3433L31.7431 34.0753L28.8451 32.9178C28.3303 32.7131 27.7445 32.8183 27.3321 33.188C26.9197 33.5577 26.7548 34.1322 26.9026 34.664L27.7473 37.6673L27.4885 37.9801L13.7748 37.9829L36.5383 17.5062L52.9285 35.7245L50.4172 37.9827L37.9374 37.983ZM55.0949 33.7767L38.7018 15.5584L51.7385 3.83299L54.3806 6.77086C51.9035 9.93051 51.9745 14.5211 54.7503 17.6066C56.2547 19.2817 58.3223 20.2686 60.5719 20.388C62.3352 20.479 64.0302 20.0354 65.4892 19.1196L68.1313 22.0546L55.0949 33.7767Z" fill="white"/>
</svg>
