<svg width="36" height="36" viewBox="0 0 36 36" fill="none" xmlns="http://www.w3.org/2000/svg">
<circle cx="17.7383" cy="18.3472" r="17" fill="white" stroke="#979797"/>
<path d="M17.7383 16.4273L22.536 11.6296C23.0659 11.0997 23.9259 11.0997 24.4558 11.6296C24.9857 12.1595 24.9857 13.0196 24.4558 13.5494L19.6581 18.3471L24.4558 23.1448C24.9857 23.6747 24.9857 24.5348 24.4558 25.0647C23.9259 25.5945 23.0659 25.5945 22.536 25.0647L17.7383 20.267L12.9406 25.0647C12.4107 25.5945 11.5507 25.5945 11.0208 25.0647C10.4909 24.5348 10.4909 23.6747 11.0208 23.1448L15.8185 18.3471L11.0208 13.5494C10.4909 13.0196 10.4909 12.1595 11.0208 11.6296C11.5507 11.0997 12.4107 11.0997 12.9406 11.6296L17.7383 16.4273Z" fill="#000A7B"/>
</svg>
