<svg width="88" height="75" viewBox="0 0 88 75" fill="none" xmlns="http://www.w3.org/2000/svg">
<path fill-rule="evenodd" clip-rule="evenodd" d="M84.3748 68.7312H74.9998V10.6492L79.0389 14.6922C80.2655 15.8758 82.2147 15.8563 83.4217 14.6531C84.6248 13.4461 84.6444 11.4969 83.4608 10.2703L74.0858 0.895307C74.0584 0.867957 74.0194 0.860147 73.992 0.832807C73.7225 0.574997 73.4139 0.367967 73.0741 0.219527L73.0623 0.215617C73.0389 0.203897 73.0116 0.203897 72.9842 0.196087C72.6639 0.0749972 72.3241 0.0124972 71.9803 0.000777178C71.8866 -0.00313282 71.7967 0.00858718 71.703 0.0163972H71.6991C71.4217 0.0320272 71.1444 0.0867172 70.8827 0.176557C70.7889 0.207807 70.6991 0.235157 70.6053 0.274217C70.2577 0.422657 69.9373 0.633597 69.6678 0.899217L60.2928 10.2742C59.1092 11.5008 59.1248 13.45 60.3319 14.6531C61.535 15.8601 63.4842 15.8758 64.7108 14.6922L68.7499 10.6492V68.7312H46.8749V48.1492L50.914 52.1883V52.1922C52.1406 53.3758 54.0898 53.3563 55.2968 52.1531C56.4999 50.9461 56.5195 48.9969 55.3358 47.7703L45.9608 38.3953C45.9335 38.368 45.8944 38.3602 45.8671 38.3328C45.5976 38.075 45.289 37.868 44.9491 37.7195L44.9374 37.7156C44.9101 37.7039 44.8827 37.7039 44.8554 37.6961C44.539 37.5789 44.203 37.5125 43.8632 37.5047C43.7616 37.5008 43.664 37.5125 43.5624 37.5203C43.289 37.5359 43.0233 37.5867 42.7655 37.6766C42.6679 37.7039 42.5702 37.7391 42.4765 37.7781C42.1288 37.9266 41.8124 38.1375 41.5429 38.3992L32.1679 47.7742C30.9843 49.0008 30.9999 50.95 32.2069 52.1531C33.41 53.3601 35.3592 53.3758 36.5858 52.1922L40.6249 48.1492V68.7312H18.7499V29.3992L22.789 33.4422C24.0156 34.6258 25.9648 34.6063 27.1718 33.4031C28.3749 32.1961 28.3945 30.2469 27.2109 29.0203L17.8359 19.6453C17.8086 19.618 17.7695 19.6102 17.7421 19.5828C17.4726 19.325 17.164 19.118 16.8242 18.9695L16.8125 18.9656C16.789 18.9539 16.7617 18.9539 16.7343 18.9461C16.414 18.825 16.0742 18.7625 15.7304 18.7508C15.6367 18.7469 15.5468 18.7586 15.4531 18.7664H15.4492C15.1718 18.782 14.8945 18.8367 14.6328 18.9266C14.539 18.9578 14.4492 18.9852 14.3554 19.0242C14.0078 19.1727 13.6875 19.3836 13.4179 19.6492L4.04293 29.0242C2.85934 30.2508 2.87494 32.2 4.082 33.4031C5.2851 34.6101 7.2343 34.6258 8.4609 33.4422L12.5 29.3992V68.7312H3.125C1.3984 68.7312 0 70.1296 0 71.8562C0 73.5828 1.3984 74.9812 3.125 74.9812H84.375C86.1016 74.9812 87.5 73.5828 87.5 71.8562C87.5 70.1296 86.1016 68.7312 84.375 68.7312L84.3748 68.7312Z" fill="white"/>
</svg>
