<svg width="59" height="52" viewBox="0 0 59 52" fill="none" xmlns="http://www.w3.org/2000/svg">
<mask id="mask0_0_1714" style="mask-type:luminance" maskUnits="userSpaceOnUse" x="0" y="0" width="59" height="52">
<path fill-rule="evenodd" clip-rule="evenodd" d="M0 0H59V52H0V0Z" fill="white"/>
</mask>
<g mask="url(#mask0_0_1714)">
<path fill-rule="evenodd" clip-rule="evenodd" d="M17.1615 3.48559C13.6283 3.48559 10.2293 4.77502 7.58769 7.11654C2.40399 12.2002 1.83825 19.4258 6.0187 26.9568C15.591 44.194 25.5677 48.7485 29.5068 48.7485C33.4202 48.7485 43.2897 44.2544 52.7972 27.2924L52.9918 26.9538C57.4619 18.9088 56.5054 11.1602 50.4271 6.2277C47.8503 4.30641 44.6807 3.25431 41.4869 3.25431C40.0974 3.25431 38.7155 3.44931 37.3804 3.83175C34.3223 4.70095 31.901 7.1498 31.0667 10.2245C30.8691 10.9168 30.2279 11.4035 29.5083 11.4035C28.7871 11.4035 28.1445 10.9168 27.9453 10.2199C26.9979 7.03945 24.4 4.64048 21.1655 3.95571C19.9752 3.64734 18.7381 3.4871 17.5085 3.4871L17.1615 3.48559ZM29.5068 52.0001C23.3741 52.0001 12.797 45.8553 3.16887 28.5349C-1.71008 19.7508 -0.918041 10.879 5.2855 4.80374C8.60904 1.84849 12.9057 0.214408 17.3697 0.214408C18.9342 0.214408 20.4956 0.416968 22.0103 0.81604C24.8149 1.48569 27.3328 3.10315 29.1085 5.3706L29.4781 5.84223L29.8296 5.35851C31.4423 3.15454 33.7641 1.51139 36.3711 0.7329C38.0291 0.246153 39.7474 -0.000244141 41.4748 -0.000244141C45.4229 -0.000244141 49.3303 1.31639 52.4774 3.7078C59.7566 9.62435 61.0449 19.1416 55.8296 28.5379C46.215 45.8553 35.6409 52.0001 29.5068 52.0001Z" fill="white"/>
</g>
<path fill-rule="evenodd" clip-rule="evenodd" d="M30.4785 21.1887C28.8687 21.1992 27.42 22.1666 26.7895 23.6505C26.1575 25.1344 26.463 26.8511 27.5705 28.0245L27.879 28.347C28.2099 28.6933 28.5528 29.0546 28.8956 29.3994C29.295 29.813 29.7288 30.2175 30.1953 30.646L30.4994 30.9251L30.8005 30.643C31.2327 30.2429 31.6665 29.8279 32.0942 29.4009C32.4758 29.0128 32.8559 28.6187 33.2643 28.1887L33.5132 27.9111C34.5566 26.7153 34.81 25.0119 34.1601 23.5698C33.5058 22.1263 32.0615 21.1917 30.4815 21.1887H30.48H30.4785ZM24.6043 39C24.0454 39 23.5356 38.7178 23.2405 38.2431C22.7755 37.4892 23.005 36.4965 23.7547 36.0307C25.0917 35.2007 26.3855 34.3005 27.6033 33.3555L28.0191 33.0316L27.6316 32.6733C27.2724 32.3374 26.9355 32.006 26.6151 31.6835C26.1798 31.2476 25.7446 30.7893 25.3317 30.3519L25.2125 30.2265C23.236 28.1335 22.686 25.0672 23.8099 22.4174C24.9323 19.766 27.5168 18.0313 30.3936 18C33.318 18 35.9085 19.6765 37.0741 22.2726C38.2546 24.8985 37.7717 27.9753 35.8429 30.11L35.5702 30.4071C35.1394 30.8624 34.7474 31.276 34.3524 31.6686C34.014 32.0119 33.6712 32.3374 33.3314 32.6598L32.9498 33.0196L33.3657 33.3391C34.5834 34.2781 35.8593 35.1634 37.1605 35.971L37.241 36.0277C37.8477 36.4024 38.1354 37.1474 37.9386 37.8371C37.7404 38.5193 37.1069 38.997 36.3974 38.997C36.0829 38.997 35.7922 38.9149 35.5433 38.7582C33.8739 37.7266 32.2642 36.592 30.7587 35.3873L30.4785 35.1634L30.1998 35.3888C28.6944 36.6025 27.0965 37.7356 25.4495 38.7582C25.1946 38.9164 24.9025 39 24.6043 39Z" fill="white"/>
</svg>
