<svg width="64" height="64" viewBox="0 0 64 64" fill="none" xmlns="http://www.w3.org/2000/svg">
<path fill-rule="evenodd" clip-rule="evenodd" d="M14.5021 0.317017V38.9016H17.8675V3.68228H60.5568V50.477H57.8452C54.1019 50.4823 51.0661 53.5182 51.0607 57.2614V59.9623H17.8348V57.3257C16.7737 57.7437 15.643 57.958 14.5015 57.958V63.317H55.8189L63.9213 55.2146V0.317483L14.5021 0.317017ZM60.5896 53.8422L54.4589 59.9729V57.272C54.4589 55.3776 55.9943 53.8422 57.8886 53.8422H60.5896Z" fill="white"/>
<path fill-rule="evenodd" clip-rule="evenodd" d="M24.2446 11.0992H54.1801V7.49792H24.2446V11.0992Z" fill="white"/>
<path fill-rule="evenodd" clip-rule="evenodd" d="M24.2446 19.3949H54.1801V15.7937H24.2446V19.3949Z" fill="white"/>
<path fill-rule="evenodd" clip-rule="evenodd" d="M24.2446 27.6908H54.1801V24.0896H24.2446V27.6908Z" fill="white"/>
<path fill-rule="evenodd" clip-rule="evenodd" d="M24.2446 35.986H54.1801V32.3848H24.2446V35.986Z" fill="white"/>
<path fill-rule="evenodd" clip-rule="evenodd" d="M47.9524 44.0459H46.8806V42.8026C46.8806 42.2346 46.6555 41.688 46.2536 41.2861C45.8517 40.8841 45.3051 40.6591 44.7371 40.6591H29.3355C28.1511 40.6591 27.1919 41.6183 27.1919 42.8026V44.7854H21.8972V42.8026C21.8972 42.2346 21.6721 41.688 21.2702 41.2861C20.8683 40.8842 20.3217 40.6591 19.7536 40.6591H4.31979C3.13543 40.6591 2.1762 41.6183 2.1762 42.8027V44.046H1.10441C0.606026 44.046 0.204102 44.4479 0.204102 44.9463V47.5186C0.204102 48.0169 0.606026 48.4189 1.10441 48.4189H2.1762V48.8369C2.1762 50.7956 2.95324 52.6712 4.33852 54.0539C5.72379 55.4391 7.60212 56.2135 9.56085 56.2108H14.5661C18.513 56.2081 21.7576 53.0919 21.9188 49.1476C22.3261 48.0356 23.3818 47.2961 24.5662 47.2961C25.7505 47.2961 26.8062 48.0356 27.2135 49.1476C27.3796 53.0891 30.6191 56.2026 34.5662 56.2108H39.5715C43.6363 56.2055 46.9297 52.9124 46.9345 48.8479V48.4298H48.0062C48.2447 48.4298 48.4752 48.3361 48.644 48.1673C48.8128 47.9985 48.9066 47.768 48.9066 47.5295V44.9572C48.9092 44.708 48.8101 44.4669 48.6279 44.2927C48.4484 44.1212 48.2019 44.0301 47.9527 44.0462L47.9524 44.0459ZM19.1213 48.8368C19.1213 51.3716 17.0688 53.4241 14.5341 53.4241H9.56093C7.02614 53.4241 4.97365 51.3716 4.97365 48.8368V43.4243H19.1213V48.8368ZM44.1262 48.8368C44.1262 51.3582 42.0925 53.4054 39.5711 53.4241H34.5444C33.3253 53.4322 32.1516 52.9552 31.2835 52.0951C30.418 51.2377 29.9276 50.0667 29.9249 48.8475V43.4243H44.1261L44.1262 48.8368Z" fill="white"/>
</svg>
