<svg width="88" height="88" viewBox="0 0 88 88" fill="none" xmlns="http://www.w3.org/2000/svg">
<path fill-rule="evenodd" clip-rule="evenodd" d="M71.875 28.2861H68.75V25.1433C68.75 16.1626 63.9844 7.86121 56.25 3.36771C48.5156 -1.12257 38.984 -1.12257 31.25 3.36771C23.5156 7.86201 18.75 16.1633 18.75 25.1433V28.2861H15.625C11.4844 28.29 7.5117 29.9478 4.582 32.8943C1.6523 35.8407 0.0039 39.836 0 44.0003V50.2859C0.003906 54.4502 1.6523 58.4456 4.582 61.392C7.5117 64.3384 11.4843 65.9962 15.625 66.0001H21.875C22.7031 66.0001 23.5 65.6701 24.0859 65.0808C24.6718 64.4916 25 63.6902 25 62.8573V25.1433C25 18.4059 28.5742 12.1828 34.375 8.81265C40.1758 5.44584 47.324 5.44584 53.125 8.81265C58.9258 12.1834 62.5 18.4062 62.5 25.1433V66.0002C62.4804 70.247 59.6406 73.9594 55.5625 75.0633C54.1406 71.4922 50.6992 69.1508 46.875 69.143H40.625C35.4492 69.143 31.25 73.3662 31.25 78.5715C31.25 83.7768 35.4492 88 40.625 88H46.875C50.9375 87.9882 54.5234 85.3404 55.7578 81.4472C59.3828 80.8226 62.6758 78.933 65.0547 76.1083C67.4297 73.2798 68.7383 69.7009 68.75 66H71.875C76.0156 65.996 79.9883 64.3382 82.918 61.3918C85.8477 58.4454 87.4961 54.4501 87.5 50.2858V44.0001C87.4961 39.8359 85.8477 35.8405 82.918 32.8941C79.9883 29.9477 76.0157 28.2899 71.875 28.2859L71.875 28.2861ZM18.75 59.7145H15.625C10.4492 59.7145 6.25 55.4913 6.25 50.286V44.0003C6.25 38.7949 10.4492 34.5718 15.625 34.5718H18.75V59.7145ZM46.875 81.7143H40.625C38.8984 81.7143 37.5 80.3079 37.5 78.5715C37.5 76.835 38.8984 75.4286 40.625 75.4286H46.875C48.6016 75.4286 50 76.835 50 78.5715C50 80.3079 48.6016 81.7143 46.875 81.7143ZM81.25 50.286C81.25 55.4913 77.0508 59.7145 71.875 59.7145H68.75V34.5718H71.875C77.0508 34.5718 81.25 38.7949 81.25 44.0003V50.286Z" fill="white"/>
</svg>
