<svg width="79" height="73" viewBox="0 0 79 73" fill="none" xmlns="http://www.w3.org/2000/svg">
<path fill-rule="evenodd" clip-rule="evenodd" d="M59.8177 7.57726C58.8015 5.81708 57.1258 4.53049 55.1623 4.00437C53.1988 3.47825 51.1044 3.75465 49.3442 4.77089L6.85309 29.3031C5.09291 30.3194 3.80632 31.995 3.2802 33.9585C2.75408 35.922 3.03047 38.0165 4.04671 39.7767L19.3796 66.3339C20.3958 68.0941 22.0714 69.3807 24.035 69.9068C25.9985 70.4329 28.0929 70.1565 29.8531 69.1403L72.3442 44.6081C74.1044 43.5918 75.391 41.9162 75.9171 39.9527C76.4432 37.9891 76.1668 35.8947 75.1506 34.1345L59.8177 7.57726ZM57.1612 9.11099L72.4941 35.6682C73.105 36.7264 73.2678 37.9801 72.9561 39.1593C72.6379 40.3388 71.8686 41.3406 70.8105 41.9516L28.3194 66.4838C27.2612 67.0947 26.0075 67.2576 24.8283 66.9458C23.6488 66.6277 22.647 65.8583 22.036 64.8002L6.7032 38.2429C6.09229 37.1848 5.92947 35.9311 6.2412 34.7519C6.55936 33.5724 7.32868 32.5705 8.38681 31.9596L50.8779 7.42738C51.9361 6.81646 53.1898 6.65365 54.3689 6.96537C55.5485 7.28354 56.5503 8.05285 57.1612 9.11099Z" fill="white"/>
<path fill-rule="evenodd" clip-rule="evenodd" d="M60.7906 12.3267L7.67866 42.991C6.94672 43.4135 6.69522 44.3521 7.11781 45.0841C7.5404 45.816 8.47897 46.0675 9.21091 45.6449L62.3229 14.9807C63.0548 14.5581 63.3063 13.6195 62.8837 12.8876C62.4611 12.1556 61.5226 11.9042 60.7906 12.3267Z" fill="white"/>
<path fill-rule="evenodd" clip-rule="evenodd" d="M33.166 44.2098L22.4355 50.405C21.7036 50.8276 21.4521 51.7662 21.8746 52.4981C22.2972 53.2301 23.2358 53.4815 23.9677 53.059L34.6982 46.8637C35.4302 46.4411 35.6817 45.5026 35.2591 44.7706C34.8365 44.0387 33.8979 43.7872 33.166 44.2098Z" fill="white"/>
<path fill-rule="evenodd" clip-rule="evenodd" d="M36.9981 50.8471L26.2676 57.0423C25.5357 57.4649 25.2842 58.4035 25.7068 59.1354C26.1294 59.8674 27.068 60.1189 27.7999 59.6963L38.5304 53.501C39.2623 53.0785 39.5138 52.1399 39.0912 51.4079C38.6686 50.676 37.7301 50.4245 36.9981 50.8471Z" fill="white"/>
<path fill-rule="evenodd" clip-rule="evenodd" d="M64.8823 34.7482L61.8163 29.4378C60.5471 27.2394 57.7314 26.4849 55.533 27.7542L50.2226 30.8201C48.0242 32.0894 47.2698 34.9051 48.539 37.1035L51.605 42.4139C52.8742 44.6123 55.6899 45.3667 57.8883 44.0975L63.1987 41.0315C65.3971 39.7623 66.1515 36.9466 64.8823 34.7482ZM59.1599 30.9715L62.2258 36.2819C62.6484 37.0139 62.3969 37.9524 61.665 38.375L56.3546 41.441C55.6226 41.8636 54.684 41.6121 54.2615 40.8802L51.1955 35.5697C50.7729 34.8378 51.0244 33.8992 51.7563 33.4766L57.0668 30.4107C57.7987 29.9881 58.7373 30.2396 59.1599 30.9715Z" fill="white"/>
</svg>
