<svg width="66" height="64" viewBox="0 0 66 64" fill="none" xmlns="http://www.w3.org/2000/svg">
<path fill-rule="evenodd" clip-rule="evenodd" d="M30.8169 50.0124C30.8169 46.9912 28.36 44.5342 25.3387 44.5342H6.16475C3.1435 44.5342 0.686523 46.9912 0.686523 50.0124C0.686523 51.6476 1.40688 53.1158 2.54635 54.1211C1.40688 55.1264 0.686523 56.5945 0.686523 58.2298C0.686523 61.251 3.1435 63.708 6.16475 63.708H25.3387C28.36 63.708 30.8169 61.251 30.8169 58.2298C30.8169 56.5946 30.0966 55.1264 28.9571 54.1211C30.0966 53.1158 30.8169 51.6477 30.8169 50.0124ZM28.0779 58.2299C28.0779 59.7391 26.848 60.969 25.3388 60.969H6.16482C4.6556 60.969 3.42574 59.7391 3.42574 58.2299C3.42574 56.7207 4.6556 55.4908 6.16482 55.4908H25.3388C26.848 55.4908 28.0779 56.7207 28.0779 58.2299ZM6.16496 52.7517C4.65574 52.7517 3.42588 51.5218 3.42588 50.0126C3.42588 48.5034 4.65574 47.2735 6.16496 47.2735H25.3389C26.8482 47.2735 28.078 48.5034 28.078 50.0126C28.078 51.5218 26.8482 52.7517 25.3389 52.7517H6.16496Z" fill="white"/>
<path fill-rule="evenodd" clip-rule="evenodd" d="M3.42603 29.469C3.42603 37.021 9.56984 43.1643 17.1214 43.1643C24.6735 43.1643 30.8168 37.0205 30.8168 29.469C30.8168 21.9174 24.673 15.7736 17.1214 15.7736C9.56935 15.7736 3.42603 21.9174 3.42603 29.469ZM17.1214 18.5125C23.1639 18.5125 28.0779 23.4265 28.0779 29.469C28.0779 35.5114 23.1639 40.4254 17.1214 40.4254C11.0789 40.4254 6.16496 35.5114 6.16496 29.469C6.16496 23.4265 11.0789 18.5125 17.1214 18.5125Z" fill="white"/>
<path fill-rule="evenodd" clip-rule="evenodd" d="M65.0557 17.143C65.0557 14.7573 63.5218 12.7221 61.3881 11.9743C61.9742 11.1005 62.3166 10.0541 62.3166 8.92562C62.3166 5.90437 59.8596 3.44739 56.8384 3.44739H37.6644C34.6432 3.44739 32.1862 5.90437 32.1862 8.92562C32.1862 11.3114 33.7201 13.3466 35.8539 14.0943C34.6158 15.9377 34.6158 18.3454 35.8539 20.1916C33.7201 20.9394 32.1862 22.9746 32.1862 25.3603C32.1862 26.9955 32.9065 28.4637 34.046 29.469C31.967 31.3015 31.5918 34.3611 33.1147 36.6263C30.9809 37.374 29.447 39.4092 29.447 41.795C29.447 44.1807 30.9809 46.2159 33.1147 46.9637C31.5945 49.2262 31.9643 52.2858 34.046 54.121C32.9065 55.1262 32.1862 56.5944 32.1862 58.2297C32.1862 61.2509 34.6432 63.7079 37.6644 63.7079H56.8384C59.8596 63.7079 62.3166 61.2509 62.3166 58.2297C62.3166 56.5944 61.5962 55.1262 60.4568 54.121C61.5962 53.1157 62.3166 51.6476 62.3166 50.0123C62.3166 47.6265 60.7827 45.5913 58.6489 44.8436C59.887 43.0002 59.887 40.5925 58.6489 38.7463C60.7827 37.9985 62.3166 35.9633 62.3166 33.5776C62.3166 31.9424 61.5962 30.4742 60.4568 29.4689C62.5303 27.6419 62.9137 24.5823 61.3881 22.3116C63.5218 21.5639 65.0557 19.5287 65.0557 17.1429V17.143ZM34.9253 8.92548C34.9253 7.41625 36.1552 6.1864 37.6644 6.1864H56.8384C58.3476 6.1864 59.5774 7.41625 59.5774 8.92548C59.5774 10.4347 58.3476 11.6646 56.8384 11.6646H37.6644C36.1552 11.6646 34.9253 10.4347 34.9253 8.92548ZM32.1862 41.7948C32.1862 40.2856 33.4161 39.0558 34.9253 39.0558H54.0993C55.6085 39.0558 56.8384 40.2856 56.8384 41.7948C56.8384 43.3041 55.6085 44.5339 54.0993 44.5339H34.9253C33.4161 44.5339 32.1862 43.3041 32.1862 41.7948ZM59.577 58.2299C59.577 59.7391 58.3472 60.969 56.8379 60.969H37.664C36.1548 60.969 34.9249 59.7391 34.9249 58.2299C34.9249 56.7207 36.1548 55.4908 37.664 55.4908H56.8379C58.3472 55.4908 59.577 56.7207 59.577 58.2299ZM59.577 50.0124C59.577 51.5216 58.3472 52.7514 56.8379 52.7514H37.664C36.1548 52.7514 34.9249 51.5216 34.9249 50.0124C34.9249 48.5031 36.1548 47.2733 37.664 47.2733H56.8379C58.3472 47.2733 59.577 48.5031 59.577 50.0124ZM59.577 33.5773C59.577 35.0865 58.3472 36.3164 56.8379 36.3164H37.664C36.1548 36.3164 34.9249 35.0865 34.9249 33.5773C34.9249 32.0681 36.1548 30.8382 37.664 30.8382H56.8379C58.3472 30.8382 59.577 32.0681 59.577 33.5773ZM37.6641 28.0991C36.1549 28.0991 34.925 26.8692 34.925 25.36C34.925 23.8508 36.1549 22.6209 37.6641 22.6209H56.8381C58.3473 22.6209 59.5772 23.8508 59.5772 25.36C59.5772 26.8692 58.3473 28.0991 56.8381 28.0991H37.6641ZM59.577 19.8816H40.4031C38.8938 19.8816 37.664 18.6517 37.664 17.1425C37.664 15.6333 38.8938 14.4034 40.4031 14.4034H59.577C61.0862 14.4034 62.3161 15.6333 62.3161 17.1425C62.3161 18.6517 61.0862 19.8816 59.577 19.8816Z" fill="white"/>
<path fill-rule="evenodd" clip-rule="evenodd" d="M4.79545 17.143C7.06072 17.143 8.90414 15.2996 8.90414 13.0343C8.90414 10.7691 7.06072 8.92566 4.79545 8.92566C2.53019 8.92566 0.686768 10.7691 0.686768 13.0343C0.686768 15.2996 2.53019 17.143 4.79545 17.143ZM4.79545 11.6648C5.55143 11.6648 6.16499 12.2784 6.16499 13.0343C6.16499 13.7903 5.55143 14.4039 4.79545 14.4039C4.03948 14.4039 3.42592 13.7903 3.42592 13.0343C3.42592 12.2784 4.03948 11.6648 4.79545 11.6648Z" fill="white"/>
<path fill-rule="evenodd" clip-rule="evenodd" d="M23.9697 11.6645C26.9909 11.6645 29.4479 9.20748 29.4479 6.18624C29.4479 3.16499 26.9909 0.708008 23.9697 0.708008C20.9484 0.708008 18.4915 3.16499 18.4915 6.18624C18.4915 9.20748 20.9484 11.6645 23.9697 11.6645ZM23.9697 3.44695C25.4789 3.44695 26.7088 4.6768 26.7088 6.18602C26.7088 7.69525 25.4789 8.9251 23.9697 8.9251C22.4605 8.9251 21.2306 7.69525 21.2306 6.18602C21.2306 4.6768 22.4605 3.44695 23.9697 3.44695Z" fill="white"/>
<path fill-rule="evenodd" clip-rule="evenodd" d="M30.817 14.4035C30.817 16.2305 28.0779 16.2305 28.0779 14.4035C28.0779 12.5765 30.817 12.5765 30.817 14.4035Z" fill="white"/>
<path fill-rule="evenodd" clip-rule="evenodd" d="M48.6214 17.1431C48.6214 18.9701 45.8823 18.9701 45.8823 17.1431C45.8823 15.3161 48.6214 15.3161 48.6214 17.1431Z" fill="white"/>
<path fill-rule="evenodd" clip-rule="evenodd" d="M10.2735 4.81716C10.2735 6.64417 7.53442 6.64417 7.53442 4.81716C7.53442 2.99015 10.2735 2.99015 10.2735 4.81716Z" fill="white"/>
<path fill-rule="evenodd" clip-rule="evenodd" d="M4.79548 41.7949C4.79548 43.622 2.0564 43.622 2.0564 41.7949C2.0564 39.9679 4.79548 39.9679 4.79548 41.7949Z" fill="white"/>
<path fill-rule="evenodd" clip-rule="evenodd" d="M45.8825 48.6429H43.1435C42.3875 48.6429 41.7739 49.2565 41.7739 50.0125C41.7739 50.7685 42.3875 51.382 43.1435 51.382H45.8825C46.6385 51.382 47.2521 50.7685 47.2521 50.0125C47.2521 49.2565 46.6385 48.6429 45.8825 48.6429Z" fill="white"/>
<path fill-rule="evenodd" clip-rule="evenodd" d="M43.143 34.9468H48.6212C49.3772 34.9468 49.9907 34.3333 49.9907 33.5773C49.9907 32.8213 49.3772 32.2078 48.6212 32.2078H43.143C42.387 32.2078 41.7734 32.8213 41.7734 33.5773C41.7734 34.3333 42.387 34.9468 43.143 34.9468Z" fill="white"/>
<path fill-rule="evenodd" clip-rule="evenodd" d="M54.0993 15.7728H51.3603C50.6043 15.7728 49.9907 16.3864 49.9907 17.1424C49.9907 17.8983 50.6043 18.5119 51.3603 18.5119H54.0993C54.8553 18.5119 55.4689 17.8983 55.4689 17.1424C55.4689 16.3864 54.8553 15.7728 54.0993 15.7728Z" fill="white"/>
</svg>
