<svg width="108" height="96" viewBox="0 0 108 96" fill="none" xmlns="http://www.w3.org/2000/svg">
<path fill-rule="evenodd" clip-rule="evenodd" d="M44.1835 65.6197H64.7002L64.6955 45.103H44.1836L44.1835 65.6197ZM48.2595 49.18H60.6186V61.5391H48.2595V49.18Z" fill="white"/>
<path fill-rule="evenodd" clip-rule="evenodd" d="M101.385 49.5774C98.2298 49.5774 95.5981 52.2091 95.5981 55.3643C95.5981 58.5195 98.2298 61.1512 101.385 61.1512C104.54 61.1512 107.172 58.5195 107.172 55.3643C107.172 52.2044 104.54 49.5774 101.385 49.5774ZM101.385 57.0705C100.464 57.0705 99.6742 56.2805 99.6742 55.3596C99.6742 54.4388 100.464 53.6488 101.385 53.6488C102.306 53.6488 103.096 54.4388 103.096 55.3596C103.096 56.2852 102.306 57.0705 101.385 57.0705Z" fill="white"/>
<path fill-rule="evenodd" clip-rule="evenodd" d="M75.086 22.0913H84.0283C84.8183 24.3257 86.9218 25.7747 89.418 25.7747C92.5732 25.7747 95.2049 23.143 95.2049 19.9878C95.2049 16.8326 92.5732 14.2009 89.418 14.2009C86.9172 14.2009 84.8136 15.7808 84.0283 17.8843H75.086C74.4269 16.9634 73.3752 16.3044 72.0617 16.3044C70.0892 16.3044 68.3783 17.8843 68.3783 19.9878C68.3783 21.3014 69.0374 22.3531 69.9582 23.0121V29.4535H57.0702V23.0121C57.9911 22.353 58.6502 21.3012 58.6502 19.9878C58.6502 18.0152 57.0702 16.3044 54.9667 16.3044C52.8632 16.3044 51.2833 18.0152 51.2833 19.9878C51.2833 21.3014 51.9424 22.3531 52.8633 23.0121V29.4535H39.9752V23.0121C40.8961 22.353 41.5552 21.3012 41.5552 19.9878C41.5552 18.6743 40.8961 17.6225 39.9752 16.9635V11.1766C42.2096 10.3866 43.6587 8.28303 43.6587 5.78692C43.6587 2.63169 41.027 0 37.8717 0C34.7165 0 32.0848 2.63169 32.0848 5.78692C32.0848 8.2877 33.6648 10.3913 35.7683 11.1766V16.9635C34.8474 17.6226 34.1883 18.6743 34.1883 19.9878C34.1883 21.3012 34.8474 22.3531 35.7683 23.0121V29.4535H28.2705V36.2922H22.3526C21.6935 35.3713 20.6418 34.7122 19.3283 34.7122C18.0147 34.7122 16.963 35.3713 16.304 36.2922H3.80968V43.3926C1.57528 44.1826 0 46.2908 0 48.7869C0 51.9422 2.63169 54.5739 5.78693 54.5739C8.94216 54.5739 11.5739 51.9422 11.5739 48.7869C11.5739 46.2862 9.9939 44.1826 7.89041 43.3973V40.5038H16.4399C17.099 41.4247 18.1508 42.0837 19.4643 42.0837C20.7778 42.0837 21.8296 41.4246 22.4886 40.5038H28.4064V53.3918H22.4886C21.8295 52.4709 20.7777 51.8119 19.4643 51.8119C17.4917 51.8119 15.7808 53.3918 15.7808 55.4953C15.7808 57.5988 17.3608 59.1787 19.4643 59.1787C20.7778 59.1787 21.8296 58.5196 22.4886 57.5988H28.4064V70.4868H22.4886C21.8295 69.5659 20.7777 68.9069 19.4643 68.9069C18.1507 68.9069 17.0989 69.5659 16.4399 70.4868H11.1812C10.3912 68.2524 8.28771 66.8034 5.79159 66.8034C2.62703 66.6725 0 69.1687 0 72.4595C0 75.7456 2.63169 78.2464 5.78693 78.2464C8.28771 78.2464 10.3913 76.6665 11.1766 74.563H16.4353C17.0944 75.4838 18.1461 76.1429 19.4596 76.1429C20.7732 76.1429 21.8249 75.4838 22.4839 74.563H28.4017V81.1399H35.8995V87.5813C35.6378 87.7122 35.5069 87.8431 35.3713 88.1095H24.8491C24.0591 85.8751 21.9556 84.4261 19.4595 84.4261C16.3042 84.4261 13.6725 87.0578 13.6725 90.213C13.6725 93.3683 16.3042 95.9999 19.4595 95.9999C21.9602 95.9999 24.0638 94.42 24.8491 92.3165H34.7122C35.2404 93.4991 36.554 94.42 37.9983 94.42C39.9709 94.42 41.6818 92.84 41.6818 90.7366C41.6818 89.423 41.0227 88.3712 40.1018 87.7122V81.2709H52.9898V87.7122C52.069 88.3713 51.4099 89.4231 51.4099 90.7366C51.4099 92.7091 52.9898 94.42 55.0933 94.42C57.1968 94.42 58.7768 92.84 58.7768 90.7366C58.7768 89.423 58.1177 88.3712 57.1968 87.7122V81.2709H70.0848V87.7122C69.164 88.3713 68.5049 89.4231 68.5049 90.7366C68.5049 92.7091 70.0848 94.42 72.1883 94.42C74.2918 94.42 75.8718 92.84 75.8718 90.7366C75.8718 89.423 75.2127 88.3712 74.2918 87.7122V81.2709C77.8444 81.2709 80.6023 78.3773 80.6023 74.8295V74.6986H86.5201C86.7819 75.0912 87.0483 75.3577 87.441 75.6195V84.8234C85.2066 85.6134 83.7575 87.717 83.7575 90.2131C83.7575 93.3683 86.3892 96 89.5445 96C92.6997 96 95.3314 93.3683 95.3314 90.2131C95.3314 87.7123 93.7514 85.6087 91.6479 84.8234V75.6195C92.5688 74.9604 93.2279 73.9086 93.2279 72.5951C93.2279 70.6226 91.648 68.9117 89.5445 68.9117C88.2309 68.9117 87.1791 69.5708 86.5201 70.4917H80.6023V57.6036H86.5201C87.1792 58.5245 88.231 59.1836 89.5445 59.1836C91.517 59.1836 93.2279 57.6036 93.2279 55.5002C93.2279 53.3967 91.648 51.8167 89.5445 51.8167C88.2309 51.8167 87.1791 52.4758 86.5201 53.3967H80.6023V40.5087H86.5201C87.1792 41.4295 88.231 42.0886 89.5445 42.0886C91.517 42.0886 93.2279 40.5087 93.2279 38.4052C93.2279 36.3017 91.648 34.7217 89.5445 34.7217C88.2309 34.7217 87.1791 35.3808 86.5201 36.3017H80.6023V29.463H74.2918V23.0216C74.4274 22.7505 74.8247 22.4888 75.0865 22.0914L75.086 22.0913ZM38.004 4.20721C38.9248 4.20721 39.7148 4.9972 39.7148 5.91808C39.7148 6.44629 39.4531 6.96983 39.0557 7.23165C38.794 7.10076 38.3967 6.96988 38.1349 6.96988C37.7422 6.96988 37.4758 7.10077 37.214 7.23165C36.8214 6.96988 36.5549 6.44166 36.5549 5.91808C36.2932 4.99721 37.0831 4.20721 38.004 4.20721H38.004ZM5.78274 50.3671C4.86187 50.3671 4.07187 49.5771 4.07187 48.6563C4.07187 47.7354 4.86186 46.9454 5.78274 46.9454C6.70362 46.9454 7.4936 47.7354 7.4936 48.6563C7.4936 49.708 6.70362 50.3671 5.78274 50.3671ZM5.78274 74.0335C4.86187 74.0335 4.07187 73.2435 4.07187 72.3226C4.07187 71.4017 4.86186 70.6117 5.78274 70.6117C6.70362 70.6117 7.4936 71.4017 7.4936 72.3226C7.4936 73.2481 6.70362 74.0335 5.78274 74.0335ZM19.4606 91.6567C18.5397 91.6567 17.7497 90.8667 17.7497 89.9458C17.7497 89.0249 18.5397 88.2349 19.4606 88.2349C20.3814 88.2349 21.1714 89.0249 21.1714 89.9458C21.1714 90.9975 20.3814 91.6567 19.4606 91.6567ZM89.4184 91.6567C88.4975 91.6567 87.7076 90.8667 87.7076 89.9458C87.7076 89.0249 88.4975 88.2349 89.4184 88.2349C90.3393 88.2349 91.1293 89.0249 91.1293 89.9458C90.9984 90.9975 90.3393 91.6567 89.4184 91.6567ZM76.2695 74.5624C76.2695 75.876 75.2178 76.9277 73.9042 76.9277H32.6099V33.5345H76.2688L76.2695 74.5624ZM89.4184 18.2775C90.3393 18.2775 91.1293 19.0675 91.1293 19.9884C91.1293 20.9093 90.3393 21.6993 89.4184 21.6993C88.4975 21.6993 87.7076 20.9093 87.7076 19.9884C87.7122 19.0675 88.3666 18.2775 89.4184 18.2775Z" fill="white"/>
</svg>
