<svg width="64" height="64" viewBox="0 0 64 64" fill="none" xmlns="http://www.w3.org/2000/svg">
<path fill-rule="evenodd" clip-rule="evenodd" d="M62.5144 39.1748C63.2222 39.0333 63.647 38.467 63.647 37.7591V26.4333C63.647 25.7254 63.2222 25.1591 62.5144 25.0175L57.1346 24.0265C56.7099 22.6107 56.1435 21.3365 55.4357 20.0624L58.5503 15.6736C58.975 15.1073 58.8335 14.3995 58.4087 13.8332L50.3391 5.76358C49.9144 5.33886 49.065 5.19729 48.4987 5.62201L44.1099 8.73662C42.8358 8.02875 41.5616 7.60403 40.1459 7.03774L39.2964 1.79958C39.1548 1.09171 38.5886 0.666992 37.8807 0.666992H26.5548C25.847 0.666992 25.2807 1.09171 25.1391 1.79958L24.1481 7.17936C22.7323 7.60408 21.4581 8.17041 20.184 8.87823L15.7952 5.76363C15.2289 5.33891 14.5211 5.48048 13.9548 5.9052L5.88516 13.9748C5.46044 14.3995 5.31887 15.2489 5.74359 15.8152L8.8582 20.204C8.15033 21.4782 7.72561 22.7524 7.15932 24.1681L1.92116 25.0175C1.21329 25.1591 0.788574 25.7254 0.788574 26.4333V37.7591C0.788574 38.467 1.21329 39.0332 1.92116 39.1748L7.30094 40.1659C7.72566 41.5816 8.292 42.8558 8.99982 44.1299L5.88521 48.5188C5.46049 49.085 5.60206 49.7929 6.02678 50.3592L14.0964 58.4288C14.5211 58.8535 15.3705 58.9951 15.9368 58.5704L20.3256 55.4557C21.5997 56.1636 22.8739 56.5883 24.2897 57.1546L25.2807 62.5344C25.4223 63.2423 25.9886 63.667 26.6965 63.667H38.0223C38.7302 63.667 39.2964 63.2423 39.438 62.5344L40.4291 57.1546C41.8448 56.7299 43.119 56.1636 44.3931 55.4557L48.782 58.5704C49.3483 58.9951 50.0561 58.8535 50.6224 58.4288L58.692 50.3592C59.1167 49.9344 59.2583 49.085 58.8336 48.5188L55.719 44.1299C56.4268 42.8558 56.8515 41.5816 57.4178 40.1659L62.5144 39.1748ZM54.7278 38.467C54.1615 40.3074 53.5952 41.8647 52.6042 43.4221C52.321 43.8468 52.321 44.4131 52.7457 44.9794L55.7187 49.2266L49.348 55.5974L45.1008 52.6244C44.6761 52.3412 44.1097 52.3412 43.5434 52.4828C41.9861 53.3322 40.2872 54.0402 38.5883 54.6064C38.022 54.748 37.5973 55.3143 37.5973 55.8806L36.7478 60.8357H27.8287L26.9792 55.8806C26.9792 55.3143 26.5545 54.748 25.9882 54.6064C24.1478 54.0402 22.5904 53.4739 21.0331 52.4828C20.6084 52.1997 20.042 52.1997 19.4757 52.6244L15.2285 55.5974L8.85779 49.2266L11.8308 44.9794C12.1139 44.5547 12.1139 43.9884 11.9724 43.4221C11.1229 41.8647 10.415 40.1659 9.84871 38.467C9.70714 37.9007 9.14085 37.4759 8.5746 37.4759L3.61949 36.6265V27.7073L8.5746 26.8579C9.14089 26.8579 9.70718 26.4332 9.84871 25.8668C10.415 24.0264 10.9813 22.4691 11.9724 20.9117C12.2555 20.487 12.2555 19.9207 11.8308 19.3544L8.85779 15.1072L15.2285 8.73643L19.4757 11.7094C19.9004 11.9926 20.4668 11.9926 21.0331 11.851C22.5904 11.0016 24.2893 10.2936 25.9882 9.72736C26.5545 9.58578 26.9792 9.01949 26.9792 8.45324L27.8287 3.49814H36.7478L37.5973 8.45324C37.5973 9.01954 38.022 9.58583 38.5883 9.72736C40.4287 10.2936 41.9861 10.8599 43.5434 11.851C43.9682 12.1341 44.5345 12.1341 45.1008 11.7094L49.348 8.73643L55.7187 15.1072L52.7457 19.3544C52.4626 19.7791 52.4626 20.3454 52.6042 20.9117C53.4536 22.4691 54.1615 24.1679 54.7278 25.8668C54.8694 26.4331 55.4357 26.8579 56.0019 26.8579L60.957 27.7073V36.6265L56.0019 37.4759C55.4356 37.4759 54.8693 37.9006 54.7278 38.467Z" fill="white"/>
<path fill-rule="evenodd" clip-rule="evenodd" d="M32.2173 11.5687C20.8915 11.5687 11.6895 20.7708 11.6895 32.0966C11.6895 38.1843 14.3794 43.5638 18.485 47.3865L18.7681 47.6696C22.449 50.7843 27.121 52.7663 32.2178 52.7663C37.3146 52.7663 42.1284 50.7843 45.6675 47.6696C45.809 47.5281 45.9506 47.5281 45.9506 47.3865C50.0562 43.564 52.7461 38.1845 52.7461 32.0966C52.7461 20.7708 43.5441 11.5687 32.2182 11.5687H32.2173ZM21.0328 45.829C21.8823 40.4492 26.5542 36.202 32.2173 36.202C35.1903 36.202 38.0218 37.3346 40.287 39.4582C41.9858 41.1571 43.1184 43.4223 43.4016 45.6874C40.287 48.2358 36.4645 49.6515 32.2171 49.6515C27.9699 49.7931 24.1474 48.3774 21.0326 45.829H21.0328ZM32.2173 33.3705C29.3859 33.3705 27.1207 31.1054 27.1207 28.2739C27.1207 25.4424 29.3859 23.1773 32.2173 23.1773C35.0488 23.1773 37.314 25.4424 37.314 28.2739C37.314 31.1054 35.0488 33.3705 32.2173 33.3705ZM45.8084 43.5638C45.1005 41.2986 43.9679 39.3166 42.2691 37.6177C40.8533 36.202 39.1545 35.0694 37.314 34.3615C39.0128 32.9458 40.1454 30.8222 40.1454 28.4154C40.1454 24.0266 36.6061 20.4873 32.2173 20.4873C27.8285 20.4873 24.2892 24.0266 24.2892 28.4154C24.2892 30.8221 25.4218 32.9458 27.1207 34.3615C23.1567 35.9189 19.9004 39.3166 18.6263 43.5635C15.9364 40.4489 14.3791 36.4849 14.3791 32.0963C14.3791 22.328 22.3072 14.3999 32.0755 14.3999C41.8439 14.3999 49.9142 22.328 49.9142 32.0963C49.9142 36.4851 48.3568 40.4492 45.8086 43.5635L45.8084 43.5638Z" fill="white"/>
</svg>
