<svg width="35" height="35" viewBox="0 0 35 35" fill="none" xmlns="http://www.w3.org/2000/svg">
<circle cx="17.5" cy="17.5" r="17" fill="white" stroke="#979797"/>
<path d="M16.1425 16.1425V9.35752C16.1425 8.60815 16.7506 8 17.5 8C18.2494 8 18.8575 8.60815 18.8575 9.35752V16.1425H25.6425C26.3919 16.1425 27 16.7506 27 17.5C27 18.2494 26.3919 18.8575 25.6425 18.8575H18.8575V25.6425C18.8575 26.3919 18.2494 27 17.5 27C16.7506 27 16.1425 26.3919 16.1425 25.6425V18.8575H9.35752C8.60815 18.8575 8 18.2494 8 17.5C8 16.7506 8.60815 16.1425 9.35752 16.1425H16.1425Z" fill="#000A7B"/>
</svg>
