<svg width="89" height="90" viewBox="0 0 89 90" fill="none" xmlns="http://www.w3.org/2000/svg">
<path fill-rule="evenodd" clip-rule="evenodd" d="M88.7923 41.582C88.6204 39.4414 87.1712 37.6211 85.1204 36.9726L77.1595 34.4609C76.8587 33.4726 76.5189 32.5 76.14 31.5625L80.5619 24.4922C81.6908 22.6836 81.6205 20.3633 80.3705 18.6211C79.0189 16.7422 77.5697 15 76.0619 13.4492C75.0502 12.4101 73.683 11.8594 72.2807 11.8594C71.6088 11.8594 70.9291 11.9883 70.2807 12.25L62.6596 15.3712C61.7611 14.7813 60.851 14.2422 59.9408 13.75L58.8119 5.64845C58.5111 3.52735 56.9603 1.79685 54.89 1.26955C52.3119 0.60939 50.2689 0.23045 48.2806 0.03125C48.1009 0.01172 47.929 0 47.7493 0C45.8196 0 44.0188 1.0586 43.1009 2.7891L39.2025 10.0977C38.1517 10.2383 37.0931 10.4375 36.0423 10.6758L29.9837 5.17582C28.9954 4.27738 27.722 3.80472 26.4446 3.80472C25.6751 3.80472 24.8938 3.9766 24.1634 4.32425C21.972 5.37505 19.9915 6.51565 18.2728 7.70315C16.5345 8.91405 15.683 11.0429 16.1244 13.1133L17.8353 21.2617C17.1556 22.0235 16.5072 22.8204 15.8744 23.6602L7.52282 23.3516H7.3236C5.2533 23.3516 3.3744 24.5625 2.515 26.4532C1.58531 28.504 0.815802 30.6329 0.214202 32.7813C-0.363928 34.8399 0.362642 37.043 2.0423 38.3594L8.6712 43.5391C8.65167 43.9805 8.63995 44.418 8.63995 44.8672C8.63995 45.4258 8.65948 45.9688 8.69854 46.4961L2.02665 51.7149C0.366445 53.0157 -0.363955 55.1758 0.175045 57.2149C0.725825 59.293 1.46415 61.3165 2.51485 63.586C3.38594 65.4571 5.25314 66.6446 7.29604 66.6446H7.49526L15.9953 66.3242C16.5734 67.0625 17.175 67.7851 17.7961 68.4726L16.007 76.9531C15.5656 79.0429 16.4367 81.1915 18.1984 82.4024C20.2882 83.8243 22.1281 84.8907 23.9875 85.7735C24.7062 86.1133 25.4758 86.2735 26.2375 86.2735C27.5187 86.2735 28.7766 85.8125 29.7687 84.914L36.2296 79.0938C37.1514 79.2852 38.0694 79.4453 38.9991 79.5625L43.0772 87.2031C43.999 88.9336 45.796 89.9922 47.7256 89.9922C47.8974 89.9922 48.0654 89.9805 48.2373 89.9727C50.3662 89.7617 52.5185 89.3945 54.8154 88.8321C56.9248 88.3203 58.5068 86.5626 58.7959 84.4102L59.9365 75.9102C60.7451 75.4805 61.5381 75.0195 62.3271 74.5196L70.2763 77.7579C70.9169 78.0196 71.5966 78.1485 72.2646 78.1485C73.6552 78.1485 75.0263 77.5977 76.0341 76.5704C77.5536 75.0118 79.0146 73.2696 80.3622 71.379C81.6005 69.6485 81.6708 67.3399 80.5536 65.5274L76.0536 58.3086C76.413 57.4297 76.745 56.5391 77.0341 55.6289L85.1357 53.0391C87.1748 52.3906 88.6162 50.5586 88.7841 48.4297C88.8739 47.25 88.8856 46.1094 88.8856 45.0586C88.8895 43.9414 88.8817 42.75 88.7919 41.582L88.7923 41.582ZM83.5306 48.0117L72.7026 51.4805C72.1245 54.0508 71.2612 56.4219 70.0815 58.6719L76.0932 68.3203C74.933 69.9414 73.6635 71.4805 72.2846 72.8906L61.7066 68.5703C59.6949 70.0703 57.4683 71.3984 55.105 72.3789L53.5855 83.7189C51.6871 84.1799 49.7457 84.5392 47.7457 84.7306L42.3238 74.5826C39.7535 74.4615 37.2457 74.0319 34.7926 73.3131L26.2418 81.0123C24.4332 80.1608 22.8004 79.1607 21.1637 78.0514L23.5348 66.8014C21.6832 65.0905 20.0231 63.11 18.6246 60.9616L7.28458 61.3835C6.45646 59.5827 5.76508 57.8132 5.25338 55.8835L14.2222 48.864C14.062 47.5437 13.8823 46.2624 13.8823 44.8835C13.8823 43.614 13.9722 42.3835 14.1323 41.1647L5.25344 34.2233C5.7925 32.3014 6.47224 30.4342 7.28464 28.6452L18.5346 29.0671C19.9448 26.8171 21.5854 24.7663 23.5229 22.9773L21.2338 12.0553C22.8354 10.9459 24.6049 9.95369 26.394 9.09439L34.6049 16.5436C37.1049 15.7428 39.726 15.2155 42.476 15.1022L47.726 5.28189C49.726 5.48111 51.6674 5.90298 53.5658 6.38349L55.0853 17.3055C57.5853 18.3367 59.8353 19.7274 61.9369 21.3641L72.2569 17.1336C73.6358 18.5555 74.9053 20.0945 76.0655 21.7039L70.1436 31.1844C71.3428 33.493 72.2022 36.0125 72.7647 38.6336L83.5147 42.0242C83.5929 43.0125 83.6046 44.0633 83.6046 45.075C83.6202 46.0515 83.6124 47.0242 83.5304 48.0125L83.5306 48.0117Z" fill="white"/>
<path fill-rule="evenodd" clip-rule="evenodd" d="M43.6782 21.0629C30.5882 21.0629 19.9402 31.7109 19.9402 44.7929C19.9402 57.8829 30.5882 68.5229 43.6702 68.5229C56.7482 68.5229 67.4002 57.8749 67.4002 44.7929C67.4002 38.4531 64.9314 32.4919 60.451 28.0119C55.9783 23.5314 50.017 21.0627 43.678 21.0627L43.6782 21.0629ZM43.6782 63.2509C33.4982 63.2509 25.2172 54.9697 25.2172 44.7899C25.2172 34.6099 33.4984 26.3289 43.6782 26.3289C48.6079 26.3289 53.2368 28.2508 56.7292 31.7273C60.2097 35.2078 62.1276 39.8484 62.1276 44.7783C62.1393 54.9733 53.862 63.2513 43.6786 63.2513L43.6782 63.2509Z" fill="white"/>
<path fill-rule="evenodd" clip-rule="evenodd" d="M53.9992 50.352L46.3195 43.602V33.383C46.3195 31.9221 45.1398 30.7424 43.6789 30.7424C42.218 30.7424 41.0383 31.9221 41.0383 33.383V44.793C41.0383 45.5548 41.3665 46.2735 41.9368 46.7735L50.5149 54.3126C51.0149 54.754 51.636 54.9728 52.2532 54.9728C52.9836 54.9728 53.7141 54.672 54.2337 54.0744C55.2024 52.9806 55.0891 51.3127 53.9993 50.3517L53.9992 50.352Z" fill="white"/>
</svg>
