<svg width="82" height="82" viewBox="0 0 82 82" fill="none" xmlns="http://www.w3.org/2000/svg">
<path fill-rule="evenodd" clip-rule="evenodd" d="M78.125 0H3.125C1.3984 0 0 1.3984 0 3.125V62.5C0 64.2266 1.3984 65.625 3.125 65.625H17.258L12.7228 76.965C12.0822 78.5666 12.8595 80.3869 14.465 81.0275C14.8478 81.1798 15.2384 81.2541 15.6252 81.2541C16.8635 81.2541 18.0393 80.508 18.5275 79.2893L23.9923 65.6253H37.5003V78.1253C37.5003 79.8519 38.8987 81.2503 40.6253 81.2503C42.3519 81.2503 43.7503 79.8519 43.7503 78.1253V65.6253H57.2583L62.7231 79.2853C63.2114 80.5041 64.3872 81.2501 65.6254 81.2501C66.0121 81.2501 66.4027 81.1758 66.7856 81.0235C68.3872 80.3829 69.1684 78.5626 68.5278 76.961L63.9926 65.625H78.1256C79.8522 65.625 81.2506 64.2266 81.2506 62.5V3.125C81.2506 1.3984 79.8522 0 78.1256 0H78.125ZM75 6.25V9.375H6.25V6.25H75ZM6.25 59.375V15.625H75V59.375H6.25Z" fill="white"/>
<path fill-rule="evenodd" clip-rule="evenodd" d="M40.625 18.75C30.285 18.75 21.875 27.1602 21.875 37.5C21.875 47.8398 30.2852 56.25 40.625 56.25C50.9648 56.25 59.375 47.8398 59.375 37.5C59.375 27.1602 50.9648 18.75 40.625 18.75ZM28.125 37.5C28.125 30.6094 33.7344 25 40.625 25C46.4375 25 51.32 28.9922 52.711 34.375H40.625C38.8984 34.375 37.5 35.7734 37.5 37.5V49.586C32.1172 48.1954 28.125 43.3126 28.125 37.5ZM43.75 49.586V40.6251H52.7109C51.5781 45.0079 48.1328 48.4532 43.75 49.586Z" fill="white"/>
</svg>
